<mxfile host="app.diagrams.net" modified="2023-07-26T03:25:49.099Z" agent="Mozilla/5.0 (Macintosh; Intel Mac OS X 10_15_7) AppleWebKit/537.36 (KHTML, like Gecko) Chrome/114.0.0.0 Safari/537.36" version="21.6.1" etag="degbus1sck4ZpLSlAi8s" type="github">
  <diagram name="第 1 页" id="VvNkXTdB-Jjv38YK5klA">
    <mxGraphModel>
      <root>
        <mxCell id="0" />
        <mxCell id="1" parent="0" />
      </root>
    </mxGraphModel>
  </diagram>
</mxfile>
